# xmcd
#
# Track frame offsets:
#	150
#	16040
#	35572
#	58867
#	79490
#	87337
#	95377
#	114122
#	128352
#	142957
#	166185
#	183347
#	198140
#	229660
#
# Disc length: 3358 seconds
#
# Revision: 1
# Processed by: cddbd v1.5.1PL2 Copyright (c) Steve Scherf et al.
# Submitted via: audiograbber 1.83.01
#
DISCID=a30d1c0e
DTITLE=Die Meiers - Meierabend
DYEAR=1900
DGENRE=
TTITLE0=Über des
TTITLE1=Drum (geht nix zsamm)
TTITLE2=De Hinterhofer Kathi
TTITLE3=Dirndl (es geht scho wieda weida)
TTITLE4=Diredare
TTITLE5=Gstanzl
TTITLE6=Wann i amoi im Lotto gwinn
TTITLE7=Der ideale Mo
TTITLE8=Mia san guate Esser
TTITLE9=Mei gehts uns guat
TTITLE10=Ganz guat drauf
TTITLE11=Feierabend
TTITLE12=Franze Romanze
TTITLE13=Komisch is des scho
EXTD=
EXTT0=
EXTT1=
EXTT2=
EXTT3=
EXTT4=
EXTT5=
EXTT6=
EXTT7=
EXTT8=
EXTT9=
EXTT10=
EXTT11=
EXTT12=
EXTT13=
PLAYORDER=
